<svg xmlns="http://www.w3.org/2000/svg" width="50" height="50" stroke="none" stroke-linecap="round" stroke-linejoin="round" fill="#000" fill-rule="nonzero"><path d="M34.29 21.9616c4.5 0 8.1818-3.3357 8.1818-7.3385 0-3.7804-3.19-6.9678-7.3636-7.3384v-3.484c0-.3707-.41-.7413-.8182-.7413-.49 0-.8182.3706-.8182.7413v3.484c-4.09.3706-7.3636 3.558-7.3636 7.3384.0818 4.0028 3.6818 7.3385 8.1818 7.3385zm0-10.526c1.9637 0 3.5182 1.4084 3.5182 3.1874s-1.5545 3.1874-3.5182 3.1874-3.5182-1.4825-3.5182-3.2615c0-1.705 1.6364-3.1133 3.5182-3.1133zM35.6 23.37l2.29 6.1525h5.4L40.3456 21.59c-1.31.8895-2.9455 1.5566-4.7455 1.78zm14.3182 23.8684L45.01 33.97h-5.4l5.4818 14.75c.3273.9637 1.31 1.5567 2.4546 1.5567 1.7182 0 2.9454-1.5567 2.3727-3.0392zm-31.1728.2224c-.6545 1.6308.7364 3.0392 2.6182 3.0392 1.2273 0 2.21-.593 2.5364-1.5567L29.4636 33.97h-5.7273l-4.99 13.49zM33.4727 23.37c-1.8818-.1482-3.6818-.8154-5.0728-1.78l-2.9454 7.8573h5.7273l2.29-6.0783zM4.9182 12.9923h10.0636v25.277H4.9182zm0 32.6895c0 2.5203 2.29 4.5217 5.0727 4.5217s4.99-2.0755 4.99-4.5217v-2.0755H4.9182v2.0755zm0-5.93h10.0636v2.298H4.9182zM9.99 3.356c-.3272 0-.6545.1483-.7363.4448l-3.9273 7.7h9.3273C10.5637 3.875 10.89 3.356 9.99 3.356zm38.4545 28.3902c0-.4447-.3273-.7413-.8182-.7413H35.11v-1.112c0-.4448-.3273-.7413-.8182-.7413s-.818.2965-.818.7413v1.1118H21.4455c-.49 0-.8182.2966-.8182.7413s.3273.7413.8182.7413h12.0273v1.112c0 .4447.3272.7412.818.7412s.8182-.2965.8182-.7412v-1.112h12.5182c.49 0 .8182-.3707.8182-.7413z"/></svg>