<svg xmlns="http://www.w3.org/2000/svg" width="50" height="50" stroke="#000" stroke-linecap="round" stroke-linejoin="round" fill="#fff" fill-rule="evenodd"><path d="M40.7052 31.1667v-6.76l-5.8026 2.487v6.76l5.8026-2.487zm-6.963-6.3005l5.177-2.219-5.177-2.219-5.1772 2.219 5.1772 2.219zm-1.1606 8.7875v-6.76l-5.8026-2.487v6.76l5.8026 2.487zM42.945 22.2435c.0476.1276.0812.2622.0812.4038v9.2842a1.158 1.158 0 0 1-.7033 1.0666l-8.1237 3.4815h-.001c-.1404.0604-.2937.094-.456.094a1.148 1.148 0 0 1-.4561-.094h-.0012l-8.1236-3.4815c-.4272-.1823-.7033-.6012-.7033-1.0666v-9.2842c0-.1416.0336-.2762.0812-.4038.015-.0395.0336-.0732.051-.109.044-.0894.0986-.1695.1647-.2438l.0767-.087c.0962-.0905.2043-.1683.3296-.2228l.0022-.001c.0013 0 .0035-.0012.0058-.0024l8.1156-3.478c.2902-.1253.6244-.1253.9145 0l8.1156 3.478c.0023.0012.0046.0024.0058.0024l.0023.001c.1253.0545.2333.1323.3295.2228.028.0267.0512.057.0767.087a1.083 1.083 0 0 1 .1647.2438l.0512.109zM32.8578 38.6368h1.916v7.0276c0 2.6654-2.1496 4.8356-4.7895 4.8356H12.742c-2.6417 0-4.7894-2.1702-4.7894-4.8356v-36.75c0-2.6653 2.1477-4.8355 4.7894-4.8355h17.2422c2.64 0 4.7895 2.1702 4.7895 4.8355v7.5434h-1.916V13.75H9.8684v27.079h22.9894v-2.192zM21.363 47.5986c1.0594 0 1.916-.8665 1.916-1.9342s-.8565-1.9342-1.916-1.9342-1.9158.8646-1.9158 1.9342.8583 1.9342 1.9158 1.9342zM16.5737 7.9473c-.5288 0-.958.4333-.958.967s.429.967.958.967h9.579c.5287 0 .958-.4332.958-.967s-.4292-.967-.958-.967h-9.579z" stroke="none" fill="#000"/></svg>