<svg xmlns="http://www.w3.org/2000/svg" width="52" height="52" stroke="#000" stroke-linecap="round" stroke-linejoin="round" fill="#fff" fill-rule="evenodd"><path d="M25.93 51C12.4976 51 1.1053 39.653 1.0006 26.1328a24.641 24.641 0 0 1 7.1977-17.582A25.055 25.055 0 0 1 25.9967 1a24.703 24.703 0 0 1 17.5366 7.2828 24.75 24.75 0 0 1 7.4664 17.4844C51.0622 39.5937 39.9513 50.8593 26.1342 51zm.0782-48.6914c-6.353.037-12.4262 2.618-16.8625 7.1656-4.4127 4.412-6.8754 10.407-6.8383 16.647.0985 12.8125 10.8953 23.557 23.6156 23.557h.1703c13.1016-.1188 23.6468-10.8008 23.596-23.904-.0594-6.2437-2.6078-12.2047-7.0805-16.5625a23.32 23.32 0 0 0-16.6007-6.9039zm-19.4 31.004V18.707h3.553v1.3086h-1.885v12.014h1.8844v1.3086zm12.0586-7.447c0 2.6563-1.6172 4.1813-3.8086 4.1813s-3.6515-1.7078-3.6515-4.0438c0-2.4406 1.5312-4.1617 3.7687-4.1617s3.6906 1.793 3.6906 4.0234zm-5.928.1172c0 1.6172.8125 2.8906 2.2054 2.8906s2.1922-1.3086 2.1922-2.9578c0-1.4984-.74-2.9117-2.1922-2.9117s-2.2265 1.3766-2.2265 3.0117zm7.1664-3.8656a12.116 12.116 0 0 1 2.107-.1766c.793-.078 1.5906.0992 2.2773.504a1.675 1.675 0 0 1 .8242 1.4844c-.0187.796-.5464 1.4902-1.3085 1.721a2.002 2.002 0 0 1 1.6031 1.9633c.0098.634-.2725 1.2373-.7656 1.636-.5625.4977-1.4984.739-2.9453.739-.595.003-1.1893-.032-1.7797-.1047zm1.4398 3.1344h.739c1 0 1.564-.471 1.564-1.1454s-.5624-1.0937-1.4843-1.0937c-.276-.0095-.5523.0102-.8243.0586zm0 3.6515c.2547.0266.5102.0375.7656.0328.9375 0 1.754-.353 1.754-1.3086s-.7984-1.3086-1.799-1.3086h-.7188zm6.914-6.8906h1.4454v5.1562c0 2.1922-1.0602 2.925-2.6172 2.925a3.866 3.866 0 0 1-1.2235-.2093l.1766-1.172a3.172 3.172 0 0 0 .8961.1437c.8242 0 1.3086-.3796 1.3086-1.754zm5.5625 4.2992v1.0016h-3.01v-1.0008zm7.0212 3.4016c-.651.2593-1.3485.3797-2.0485.353-2.5195 0-4.0508-1.578-4.0508-3.9844-.06-1.1378.37-2.247 1.18-3.0484a3.992 3.992 0 0 1 3.0608-1.1461c.6725-.0275 1.3427.093 1.9633.353l-.3125 1.1516a3.865 3.865 0 0 0-1.557-.3078c-1.6172 0-2.7813 1.014-2.7813 2.925 0 1.7406 1.0274 2.867 2.768 2.867.5405.0085 1.077-.0917 1.578-.2945zM45.384 18.668v14.6445h-3.553V32.004h1.8843V19.9844H41.831v-1.3086z" stroke="none" fill="#000" fill-rule="nonzero"/></svg>