<svg xmlns="http://www.w3.org/2000/svg" width="52" height="47" stroke="none" stroke-linecap="round" stroke-linejoin="round" fill="#fff" fill-rule="nonzero"><path d="M50.9437 12.1918a13.988 13.988 0 0 0-.3163-2.953c-.3907-1.9945-1.428-3.8225-2.9687-5.2342-.7897-.7383-1.7007-1.335-2.693-1.764-.971-.4687-2.0077-.7812-3.078-.953C40.83 1.0922 39.6613 1.0922 38.6043 1h-26.132a19.297 19.297 0 0 0-2.432.1961 9.279 9.279 0 0 0-2.3436.575l-.7422.2875C6.2466 2.413 5.571 2.8284 4.935 3.3c-.2062.1953-.4257.2875-.625.4703-.7843.669-1.4408 1.4747-1.9375 2.378-.5133.8968-.8804 1.864-1.0562 2.8686-.1573.9737-.263 1.955-.3164 2.9398v22.775c.0004.9927.1065 1.9826.3164 2.953.3906 1.9945 1.428 3.8225 2.9687 5.2342a9.42 9.42 0 0 0 2.6514 1.7117c.971.4687 2.0078.7812 3.078.953 1.0577.1953 2.2265.1953 3.2835.2874h25.3632c1.1008-.001 2.1993-.0974 3.2835-.2874a11.404 11.404 0 0 0 3.0234-.9406c.988-.4454 1.9122-1.02 2.7475-1.7117a8.512 8.512 0 0 0 1.9101-2.3781c.5234-.89.8812-1.857 1.0578-2.8616A27.965 27.965 0 0 0 51 34.7388V12.2012z" fill="#f05138"/><path d="M34.3873 35.7107c-4.4515 2.3124-10.566 2.5468-16.7073.1828-4.7913-1.8336-8.8935-5-11.773-9.0677 1.3437.953 2.8062 1.7437 4.3553 2.3437 6.3475 2.6132 12.71 2.4952 17.1745 0-5.8944-4.2655-11.2028-9.217-15.8003-14.7386-.7922-.797-1.5-1.6726-2.1156-2.6132a121.962 121.962 0 0 0 15.3613 10.4528c-3.931-3.7905-7.5467-7.867-10.8122-12.191a105.999 105.999 0 0 0 17.8588 13.1527l.6875.3657c.186-.426.3466-.8624.4813-1.307 1.4843-4.8608-.2063-10.3872-3.9155-14.9605 8.5872 4.664 13.6714 13.4316 11.562 20.775 0 .1953-.1094.3922-.1797.5883l.0688.078c4.245 4.7694 3.078 9.8122 2.542 8.859-2.3218-3.9842-6.6225-2.7577-8.7794-1.9218z" fill="#fefefe"/></svg>