<svg xmlns="http://www.w3.org/2000/svg" width="50" height="50" stroke="#000" stroke-linecap="round" stroke-linejoin="round" fill="#fff" fill-rule="evenodd"><path d="M25.6834 2.2524c-5.614 0-11.56 3.154-15.195 7.025-.2273-.023-.4722-.047-.7055-.047-3.7298 0-6.774 3.0604-6.774 6.79 0 2.415 1.285 4.538 3.199 5.739.0205 8.7952 5.913 16.1473 13.94 18.5348.714 2.9766 3.398 5.206 6.586 5.206 2.9274 0 5.4388-1.8892 6.382-4.5005 4.2536-1.286 8.1033-3.9164 10.7412-7.8875l2.7287 1.788.329-6.2096.3292-6.1784-5.535 2.807-5.5196 2.807 2.9168 1.9128c-1.8154 2.702-3.562 4.5602-6.3822 5.5196-1.14-2.1446-3.4015-3.6063-5.9902-3.6063-2.5064 0-4.6917 1.3834-5.8644 3.418-4.8116-1.6032-9.304-6.7058-9.55-12.7638 2.9982-.698 5.2532-3.3825 5.2532-6.586 0-1.8185-.7226-3.4688-1.8973-4.6887C17.8662 7.788 23.34 4.793 28.4116 4.793c2.687 0 5.2196.6187 7.4796 1.7246-.7968 1.1115-1.2856 2.4713-1.2856 3.936 0 3.7298 3.06 6.774 6.7896 6.774s6.774-3.0443 6.774-6.774-3.0443-6.7896-6.774-6.7896c-1.857 0-3.5556.7724-4.7824 1.9917-3.1166-2.1378-6.863-3.403-10.9294-3.403zm15.7118 3.6694c2.51 0 4.516 2.0227 4.516 4.5316a4.497 4.497 0 1 1-9.0321 0c0-2.509 2.007-4.5316 4.516-4.5316zM39.357 7.537l-.7998.7838 2.007 2.007-2.007 2.007.7998.7838 2.007-2.007 1.9756 2.007.8153-.7838-2.007-2.007 2.007-2.007-.8153-.7838-1.9756 2.007-2.007-2.007zm-29.574 3.95c2.509 0 4.516 2.0232 4.516 4.532a4.497 4.497 0 0 1-4.516 4.516c-2.509 0-4.516-2.0076-4.516-4.516s2.0072-4.532 4.516-4.532zm2.6032 2.1958L9.234 16.8356l-1.8656-1.866-.816.7998 2.6815 2.65.6272-.6117.1726-.188 3.1517-3.1362-.7993-.7993zm14.363 20.526a4.497 4.497 0 1 1 0 9.0321c-2.5084 0-4.5316-2.0076-4.5316-4.516s2.0232-4.516 4.5316-4.516zm-3.4337 2.4618v.4862h5.3315v-.4862h-5.3315zm5.488.6743l.439 1.7718.0788-.2825c.2002.4577.3878 1.0653.3918 1.286.003.168-.051.2504-.0787.298-.0306.0537-.0713.123-.172.1254l.0155.4862c.2052-.005.41-.1365.55-.298s.1927-.3784.188-.6272c-.0065-.3563-.2258-1.0453-.4862-1.5997l.392.11-1.3172-1.27zm-4.516.298v.4857h4.3595v-.4857h-4.3595zm-.972.972v.47h4.8452v-.47h-4.8452zm0 .9564v.4862h1.4582v-.4862h-1.4582zm1.9444 0v.4862h3.8728v-.4862H25.26zm-.9724.9724v.4862h4.8452v-.4862h-4.8452zm.9724.972v.4862h3.8728v-.4862H25.26z" stroke="none" fill="#000" fill-rule="nonzero"/></svg>